<?xml version="1.0" encoding="utf-8"?>
<!-- Generator: Adobe Illustrator 21.1.0, SVG Export Plug-In . SVG Version: 6.00 Build 0)  -->
<svg version="1.1" id="圖層_1" xmlns="http://www.w3.org/2000/svg" xmlns:xlink="http://www.w3.org/1999/xlink" x="0px" y="0px"
	 viewBox="0 0 42 14" style="enable-background:new 0 0 42 14;" xml:space="preserve">
<style type="text/css">
	.st0{fill:#DD4B39;}
	.st1{font-family:'NotoSansCJKtc-Regular-B5pc-H';}
	.st2{font-size:8px;}
</style>
<g>
	<g>
		<g>
			<rect x="4.1" y="3.6" class="st0" width="5" height="0.9"/>
		</g>
	</g>
	<g>
		<g>
			<rect x="4.1" y="5.4" class="st0" width="5" height="0.9"/>
		</g>
	</g>
	<g>
		<g>
			<rect x="4.1" y="7.2" class="st0" width="5" height="0.9"/>
		</g>
	</g>
	<g>
		<g>
			<rect x="4.1" y="8.9" class="st0" width="2.5" height="0.9"/>
		</g>
	</g>
	<g>
		<g>
			<path class="st0" d="M10.7,1.3H2.5c-0.3,0-0.6,0.3-0.6,0.6v10.6c0,0.3,0.3,0.6,0.6,0.6h8.2c0.3,0,0.6-0.3,0.6-0.6V1.9
				C11.3,1.6,11,1.3,10.7,1.3z M7.1,12.3c-0.1,0.1-0.3,0.2-0.4,0.2h0c-0.3,0-0.6-0.3-0.6-0.6c0-0.3,0.3-0.6,0.6-0.6
				c0.3,0,0.6,0.3,0.6,0.6C7.2,12,7.2,12.2,7.1,12.3z M10.1,10.7H3.2V2.8h6.9V10.7z"/>
		</g>
	</g>
</g>
<text transform="matrix(1 0 0 1 14.1304 10.188)" class="st0 st1 st2">電子書</text>
</svg>
