<?xml version="1.0" encoding="utf-8"?>
<!-- Generator: Adobe Illustrator 21.1.0, SVG Export Plug-In . SVG Version: 6.00 Build 0)  -->
<svg version="1.1" id="圖層_1" xmlns="http://www.w3.org/2000/svg" xmlns:xlink="http://www.w3.org/1999/xlink" x="0px" y="0px"
	 viewBox="0 0 42 14" style="enable-background:new 0 0 42 14;" xml:space="preserve">
<style type="text/css">
	.st0{fill:#DD4B39;}
	.st1{font-family:'NotoSansCJKtc-Regular-B5pc-H';}
	.st2{font-size:8px;}
</style>
<text transform="matrix(1 0 0 1 16.3689 9.8001)" class="st0 st1 st2">紙本書</text>
<g>
	<path class="st0" d="M15.1,3.1h-0.6V2.5c0-0.1-0.1-0.2-0.2-0.2l-3.4-0.4c-0.8-0.1-1.5,0-2.2,0.4C8,1.9,7.2,1.8,6.4,1.9L3,2.3
		c-0.1,0-0.2,0.1-0.2,0.2v0.6H2.2C2,3.1,1.9,3.2,1.9,3.3v8.1c0,0.1,0.1,0.2,0.2,0.2h12.9c0.1,0,0.2-0.1,0.2-0.2V3.3
		C15.4,3.2,15.3,3.1,15.1,3.1z M10.8,2.4L14,2.7v7.3l-3.2-0.4c-0.7-0.1-1.4,0-2,0.3V2.7C9.5,2.4,10.2,2.3,10.8,2.4z M6.5,2.4
		c0.7-0.1,1.3,0,1.9,0.3V10c-0.5-0.2-1-0.3-1.5-0.3c-0.2,0-0.3,0-0.5,0l-3.2,0.4V2.7L6.5,2.4z M14.9,11.2H2.4V3.6h0.3v6.8
		c0,0.1,0,0.1,0.1,0.2c0.1,0,0.1,0.1,0.2,0.1l3.4-0.4c0.7-0.1,1.4,0,2.1,0.4c0.1,0,0.2,0,0.2,0c0.6-0.3,1.3-0.5,2.1-0.4l3.4,0.4
		c0,0,0,0,0,0c0.1,0,0.1,0,0.2-0.1c0.1,0,0.1-0.1,0.1-0.2V3.6h0.3L14.9,11.2L14.9,11.2z"/>
	<path class="st0" d="M9.5,3.8c0.4-0.1,0.9-0.2,1.4-0.1L13.4,4c0,0,0,0,0,0c0.1,0,0.2-0.1,0.2-0.2c0-0.1-0.1-0.3-0.2-0.3l-2.6-0.3
		c-0.5-0.1-1,0-1.5,0.1c-0.1,0-0.2,0.2-0.2,0.3C9.2,3.7,9.3,3.8,9.5,3.8z"/>
	<path class="st0" d="M3.9,4C3.9,4,3.9,4,3.9,4l2.6-0.3c0.5-0.1,0.9,0,1.4,0.1c0.1,0,0.3,0,0.3-0.2c0-0.1,0-0.3-0.2-0.3
		c-0.5-0.1-1-0.2-1.5-0.1L3.8,3.5c-0.1,0-0.2,0.1-0.2,0.3C3.6,3.9,3.7,4,3.9,4z"/>
	<path class="st0" d="M9.5,4.9c0.4-0.1,0.9-0.2,1.4-0.1l2.6,0.3c0,0,0,0,0,0c0.1,0,0.2-0.1,0.2-0.2c0-0.1-0.1-0.3-0.2-0.3l-2.6-0.3
		c-0.5-0.1-1,0-1.5,0.1c-0.1,0-0.2,0.2-0.2,0.3C9.2,4.9,9.3,4.9,9.5,4.9z"/>
	<path class="st0" d="M3.9,5.1C3.9,5.1,3.9,5.1,3.9,5.1l2.6-0.3c0.5-0.1,0.9,0,1.4,0.1c0.1,0,0.3,0,0.3-0.2c0-0.1,0-0.3-0.2-0.3
		c-0.5-0.1-1-0.2-1.5-0.1L3.8,4.6c-0.1,0-0.2,0.1-0.2,0.3C3.6,5,3.7,5.1,3.9,5.1z"/>
	<path class="st0" d="M9.5,6c0.4-0.1,0.9-0.2,1.4-0.1l2.6,0.3c0,0,0,0,0,0c0.1,0,0.2-0.1,0.2-0.2c0-0.1-0.1-0.3-0.2-0.3l-2.6-0.3
		c-0.5-0.1-1,0-1.5,0.1c-0.1,0-0.2,0.2-0.2,0.3S9.3,6.1,9.5,6z"/>
	<path class="st0" d="M3.9,6.2C3.9,6.2,3.9,6.2,3.9,6.2l2.6-0.3c0.5-0.1,0.9,0,1.4,0.1c0.1,0,0.3,0,0.3-0.2c0-0.1,0-0.3-0.2-0.3
		c-0.5-0.1-1-0.2-1.5-0.1L3.8,5.7C3.7,5.8,3.6,5.9,3.6,6C3.6,6.1,3.7,6.2,3.9,6.2z"/>
	<path class="st0" d="M9.5,7.2C9.9,7,10.4,7,10.8,7.1l2.6,0.3c0,0,0,0,0,0c0.1,0,0.2-0.1,0.2-0.2c0-0.1-0.1-0.3-0.2-0.3l-2.6-0.3
		c-0.5-0.1-1,0-1.5,0.1C9.2,6.7,9.1,6.9,9.2,7C9.2,7.1,9.3,7.2,9.5,7.2z"/>
	<path class="st0" d="M3.9,7.4C3.9,7.4,3.9,7.4,3.9,7.4l2.6-0.3C6.9,7,7.4,7,7.8,7.2c0.1,0,0.3,0,0.3-0.2c0-0.1,0-0.3-0.2-0.3
		c-0.5-0.1-1-0.2-1.5-0.1L3.8,6.9C3.7,6.9,3.6,7,3.6,7.1C3.6,7.3,3.7,7.4,3.9,7.4z"/>
	<path class="st0" d="M13.5,8l-2.6-0.3c-0.5-0.1-1,0-1.5,0.1C9.2,7.9,9.1,8,9.2,8.1c0,0.1,0.2,0.2,0.3,0.2c0.4-0.1,0.9-0.2,1.4-0.1
		l2.6,0.3c0,0,0,0,0,0c0.1,0,0.2-0.1,0.2-0.2C13.7,8.1,13.6,8,13.5,8z"/>
	<path class="st0" d="M3.9,8.5C3.9,8.5,3.9,8.5,3.9,8.5l2.6-0.3c0.5-0.1,0.9,0,1.4,0.1c0.1,0,0.3,0,0.3-0.2c0-0.1,0-0.3-0.2-0.3
		c-0.5-0.1-1-0.2-1.5-0.1L3.8,8C3.7,8,3.6,8.1,3.6,8.3C3.6,8.4,3.7,8.5,3.9,8.5z"/>
</g>
</svg>
